<?xml version="1.0" encoding="utf-8"?>
<!-- Generator: Adobe Illustrator 19.0.0, SVG Export Plug-In . SVG Version: 6.00 Build 0)  -->
<svg version="1.1" baseProfile="tiny" id="Laag_1" xmlns="http://www.w3.org/2000/svg" xmlns:xlink="http://www.w3.org/1999/xlink"
	 x="0px" y="0px" viewBox="0 0 449.3 104.5" xml:space="preserve">
<g>
	<g>
		<path fill="#FFFFFF" d="M40.2,48.4H0v-9.2l21.4-27.9H2.1V0h37.4v9.4L18.8,37h21.4V48.4z"/>
		<path fill="#FFFFFF" d="M60.2,48.4h-15V0h15V48.4z"/>
		<path fill="#FFFFFF" d="M120.4,48.4h-13.8V13.8h-0.1l-8.8,34.6h-9.5l-9.1-34.6h-0.1v34.6H67.8V0h19.4l6.9,25.7h0.1L100.8,0h19.5
			V48.4z"/>
		<path fill="#FFFFFF" d="M181,48.4h-13.8V13.8h-0.1l-8.8,34.6h-9.5l-9.1-34.6h-0.1v34.6h-11.1V0h19.4l6.9,25.7h0.1L161.5,0H181
			V48.4z"/>
		<path fill="#FFFFFF" d="M225.1,48.4h-36.3V0h36.3v11.1h-21.8v7.1h17.6V29h-17.6v7.8h21.8V48.4z"/>
		<path fill="#FFFFFF" d="M246.1,48.4h-15V0h24.6c4.2,0,8.9,0.6,12.5,3c4,2.5,5.9,6.8,5.9,11.6c0,6.3-2.8,10.2-8.5,12.8l8.7,21.1
			h-16.5l-7.1-18.5h-4.7V48.4z M246.1,19.5h5.4c3.2,0,7.1-0.5,7.1-4.7c0-1.6-0.8-3.2-2.3-3.9c-1.3-0.6-2.8-0.6-4.2-0.6h-6V19.5z"/>
		<path fill="#FFFFFF" d="M332,48.4h-13.8V13.8H318l-8.8,34.6h-9.5l-9.1-34.6h-0.1v34.6h-11.1V0h19.4l6.9,25.7h0.1L312.4,0H332V48.4
			z"/>
		<path fill="#FFFFFF" d="M364.6,38.9h-12.9l-3,9.5h-12.1l15-48.4h15.7l15.2,48.4h-15.2L364.6,38.9z M362.1,28.3l-4-14l-3.9,14
			H362.1z"/>
		<path fill="#FFFFFF" d="M415.9,48.4L402,25.7l-4.3-8.7l-0.1,0.1l0.1,0.6c0.7,3.1,1,4.8,1,8.1v22.6h-12.1V0h14l16.2,27l0.1-0.1
			L416,13.5V0h12.1v48.4H415.9z"/>
	</g>
	<g>
		<path fill="#FFFFFF" d="M40.2,104.5H0v-9.2l21.4-27.9H2.1V56.1h37.4v9.4L18.8,93h21.4V104.5z"/>
		<path fill="#FFFFFF" d="M60.2,104.5h-15V56.1h15V104.5z"/>
		<path fill="#FFFFFF" d="M120.4,104.5h-13.8V69.9h-0.1l-8.8,34.6h-9.5l-9.1-34.6h-0.1v34.6H67.8V56.1h19.4l6.9,25.7h0.1l6.6-25.7
			h19.5V104.5z"/>
		<path fill="#FFFFFF" d="M181,104.5h-13.8V69.9h-0.1l-8.8,34.6h-9.5l-9.1-34.6h-0.1v34.6h-11.1V56.1h19.4l6.9,25.7h0.1l6.6-25.7
			H181V104.5z"/>
		<path fill="#FFFFFF" d="M225.1,104.5h-36.3V56.1h36.3v11.1h-21.8v7.1h17.6v10.8h-17.6v7.8h21.8V104.5z"/>
		<path fill="#FFFFFF" d="M246.1,104.5h-15V56.1h24.6c4.2,0,8.9,0.6,12.5,3c4,2.5,5.9,6.8,5.9,11.6c0,6.3-2.8,10.2-8.5,12.8
			l8.7,21.1h-16.5L250.7,86h-4.7V104.5z M246.1,75.6h5.4c3.2,0,7.1-0.5,7.1-4.7c0-1.6-0.8-3.2-2.3-3.9c-1.3-0.6-2.8-0.6-4.2-0.6h-6
			V75.6z"/>
		<path fill="#FFFFFF" d="M332,104.5h-13.8V69.9H318l-8.8,34.6h-9.5l-9.1-34.6h-0.1v34.6h-11.1V56.1h19.4l6.9,25.7h0.1l6.6-25.7H332
			V104.5z"/>
		<path fill="#FFFFFF" d="M364.6,94.9h-12.9l-3,9.5h-12.1l15-48.4h15.7l15.2,48.4h-15.2L364.6,94.9z M362.1,84.4l-4-14l-3.9,14
			H362.1z"/>
		<path fill="#FFFFFF" d="M415.9,104.5L402,81.8l-4.3-8.7l-0.1,0.1l0.1,0.6c0.7,3.1,1,4.8,1,8.1v22.6h-12.1V56.1h14l16.2,27l0.1-0.1
			L416,69.6V56.1h12.1v48.4H415.9z"/>
		<path fill="#FFFFFF" d="M449.3,104.5h-13.5V91.6h13.5V104.5z"/>
	</g>
</g>
</svg>
